<svg xmlns="http://www.w3.org/2000/svg" fill="#fff" viewBox="0 0 171 48">
    <path d="M161.5 18.8V24h1.3c2 0 2.9-1 2.9-2.6 0-1.3-.6-2.6-3.2-2.6h-1zm5.4 12a59.5 59.5 0 0 1-4-5.8h-1.4v4.8l2.1.2v.8l-2.5-.1h-1.5l-2.6.1V30l2.3-.2v-11l-2.3-.2v-.8l2.8.1h3.2c2.8 0 5.1 1 5.1 3.5 0 1.8-1.3 2.8-2.9 3.2 1.3 2 2.5 3.7 4 5.3l1.4.2v.8l-3.7-.1zm-31.1-12-2.2-.2v-.8l2.6.1h1.5l2.6-.1v.8l-2.3.2v10.9l2.3.2v.8l-2.6-.1h-1.5l-2.6.1v-.8l2.3-.2V18.8h-.1zm-5.2 0-4.2 12.1h-1.7l-4.2-12.1-1.6-.2v-.8l2.9.1 3.2-.1v.8l-2.1.2 3.2 9.6 3.2-9.6-2.1-.2v-.8l2.7.1 2.2-.1v.8l-1.5.2zm-59 11v-11l-2.3-.2v-.8l2.6.1h6.4l.2-.7h.9v3.7h-.9l-.3-2h-4.4v4.9H77l.2-1.5h.8v3.9h-.8l-.2-1.4h-3.2v3.9l.1 1 1.7.1h1.3c1.1 0 1.6-.1 1.8-.3.2-.2.5-.9.9-2.4h.9l-.4 3.6h-7.2l-3.5.1V30l2.2-.2zm32.4-2.3c0 2.2-1.8 3.5-4.2 3.5-1.2 0-2.4-.4-3.2-.9l-.2 1h-.9v-4.3h.9l.4 1.9c.7.8 1.9 1.3 3 1.3 1.4 0 2.2-.8 2.2-2.1 0-2.9-6.1-3-6.1-7 0-2.1 1.8-3.3 4-3.3a8 8 0 0 1 2.4.4l.2-1h.9v3.8h-.9l-.3-1.7c-.6-.4-1.3-.6-2.1-.6-1.3 0-2.2.6-2.2 1.9 0 2.8 6.1 2.9 6.1 7.1zm-18.6 2.3v-11l-2.3-.2v-.8l2.6.1h1.5l2.6-.1v.8l-2.3.2v9.9l.1.9 1.5.1h.7c1.2 0 1.6-.1 1.8-.3.2-.2.6-.9 1-2.8h.9l-.3 4.1h-6.8l-3.4.1V30l2.4-.2zm23.6 0v-11l-2.3-.2v-.8l2.8.1h6.3l.2-.9h.9v3.7h-.9l-.3-2h-4.4v4.9h3.2l.2-1.5h.8V26h-.8l-.2-1.4h-3.2v3.9l.1 1 1.7.1h1.5c1.1 0 1.6-.1 1.8-.3.2-.2.5-.9.9-2.4h.9l-.4 3.6h-7.5l-3.5.1v-.8h2.2zm36.5 0v-11l-2.3-.2v-.8l2.8.1h6.3l.2-.7h.9v3.7h-.9l-.3-2h-4.4v4.9h3.2l.2-1.5h.8v3.9h-.8l-.2-1.4h-3.2v3.9l.1 1 1.7.1h1.3c1.1 0 1.5-.1 1.7-.3s.5-.9.9-2.4h.9l-.4 3.6h-7.2l-3.5.1V30l2.2-.2zM15 22.4c.6-.3.9-.7 1-1.1V21h-.3l-1.1.9-.6.1-.1-.1c.4-.2.8-.5 1-.8.2-.2.1-.4-.2-.4-.4-.1-.8.1-1.1.4-.6.5-.8 1.6-.9 2.2l-.3.2V22l.3-.7c.1-.1 0-.4-.2-.4l-.2.1c-.3.8-.8 1.2-1.4 1.7l-.8.5c-.3-.1-.5-.3-.8-.7a6 6 0 0 1-.9-1.3c-.1-.2-.3-.2-.4-.2H6.6c-.5-.1-.8-.3-1.1-.8-.3-.4-.4-.4-.7-.1L4 21l-.3.2c-.2.1-.3.1-.4-.2-.3-.8-.4-1.5-.4-2.3v-1.2a2 2 0 0 0-.9-.6c-.7-.3-1.3-.9-1.9-1.4l-.1-.4.3-.4c.3-.2.9-.3 1.4-.3l1.5.2c.3 0 .5-.3.4-.8-.1-1.1.2-1.8.9-2.4.5-.5.4-1 .3-1.7-.1-.3-.2-.4-.5-.4-.7.2-.7.2-.8.8-.1.4-.2.8-.5 1.2l-1 1.3c-.1.2-.3.2-.4.1-1.1-.7-1.5-2-1-3.1.1-.3.3-.7.5-.8h.1V9l-.3.7c-.3.8-.2 1.6.3 2.3l.2.2c.1 0 .2.1.2 0l1-1c.4-.5.5-1 .4-1.5L2.9 9l-.1-.2-.2.1c-.3.4-.5.7-.6 1.3l-.2.2-.1-.3c.1-.6.3-1.1.6-1.4.2-.2.2-.4 0-.5C1.5 8 .8 7.8.2 7a.8.8 0 0 1-.2-.4c0-.2.1-.3.3-.4.7-.5 1.4-1 2.1-1.1L3 5c-.3-1-.7-2.2-.8-3.3l.2-1 .6.1.9.5c.3.2.4.2.6-.1.3-.5.7-.9 1.2-1.1L6-.1c.2 0 .3.1.4.3l.8 1.4c.3.5.6.5 1 .2l1.3-1c.4-.3.5-.3 1 0L11.6 2c0 .1 1-.4 1-.6 0-.4.2-.7.3-1 .2-.4.5-.5.7-.5l1 .5.7.4c.4.2.4.2.6-.1.2-.4.5-.5 1-.5 1 0 2 .2 2.7 1.1.1.2.2.2.4 0 .3-.3.6-.4 1.1-.4h1c.2 0 .3 0 .5-.3.3-.4.6-.7 1-.7.7 0 1.5.9 2 1.8l-.2.1-.7-.5-1.1-.6c-.4-.2-.6 0-.5.4l.3 1.5c.1.5.5.9 1 1.1v.2l-.3-.1h-.9c-.6.1-1.1.4-1.6.6-.2.1-.2.2 0 .4.3.3.5.6.9.8.9.7 1.8.5 2.8.2l.5-.2c.4-.1.9.1 1.2.4l1 .9c.3.3.4.6.2 1a18.6 18.6 0 0 1-1.3 2.1c-.1-.1-.2-.3-.1-.5l.2-.3c.3-.5.6-1 .6-1.6.1-.5-.2-.8-.7-.6l-.4.2c-.2.1-.2 0-.3-.2l-.2-.5c-.1-.3-.3-.4-.5-.2l-1 .9c-.3.5-.4 1.2-.4 1.8v.3l.1.2.2-.2.3-1 .1-.7h.3l.3.3c-.4.5-.7 1.3-1 2l-.3.2-.3-.2-.6-1.3c-.3-1.5-.4-1.6-.5-1.7-.6-1-1.3-1.8-2.2-2.6l-.2-.2.2-.1.9-.3c.4-.1.6-.4.8-.7l.4-.6c.2-.3.1-.4-.1-.7-.4-.4-.9-.6-1.5-.5s-.9.5-1.1 1.1l-.1.6c0 .3.1.4.3.2l1.1-.8.2-.1c-.2.5-.5.8-.9 1.1l-.7.6c-.2.2-.3.1-.4-.2s0-.6 0-.9c0-1-.5-1.6-1.3-2l-.7-.3c-.3.1-.4.3-.4.6l.2 1.5.1.5c.1.3.4.4.8.4.2-.1.3-.3.1-.8l-.4-.7-.1-.3v-.2l.2.1c.5.5.8 1.1 1.1 1.8 0 .5 0 .6-.3.7l-1.8.2c-1 .2-1.3.6-1.7 1.2l-.2.6 1.3-.1a4 4 0 0 0 1.3-.4l.9-.9.5-.1c1.1.6 2 1.3 2.6 2.5l.2.3s.1.1 0 .1h-.1l-.7-.2-.2-.3-.2-.6c-.1-.2-.2-.2-.4-.2l-.4.2c-.2.1-.2.1-.3-.1l-.2-.8c-.1-.3-.2-.4-.5-.2-.6.3-1 .7-1.2 1.3-.3.5-.4.9-.1 2.3.1.3.3.6.5.7l2.4.8.1.1-.1.1-.9.6c-.2.1-.2 0-.3-.1-.2-.4-.6-.7-1-.9-.2-.1-.2 0-.3.1l-.3.9c-.1.1-.1.2-.3.1-.7-.6-1.4-.6-2.3-.5-.4.1-.6.2-.5.6.2.7.5 1.1 1.1 1.5l1 .5.3-.2c.1-.2.1-.4-.1-.5l-1.4-.9c-.1-.1.1-.2.2-.3l.3.1c.6.3 1.1.8 1.6 1.3.3.2.4.2.5-.1l.3-1 .1-.1.1.1a2.2 2.2 0 0 1-.1 1.6c-.1.3-.3.4-.5.4-.6-.1-1.2.1-1.7.2l-.8.2a1 1 0 0 1-.6-.2h-.1l.3-.1.9-.1-.3-.3c-.6-.5-1.3 0-1.8.3-.3.2-.3.2-.2.5.2.5.5.6 1 .6h.8l.4-.1 1-.4.3.1-.1.3-.8.5-.2.1-.2.3.3.3 1.1.2c.6.1.8 0 1-.6l.3-.9c.1-.2.2-.2.3 0l1.2 2.1c.1.2 0 .2-.2.2l-2.7-.3c-.3 0-.6-.2-.9-.4-.5-.2-.9-.4-1.5-.4-.5 0-.7.3-.6.7l.7 1.9c.2.4.6.6 1.1.6.2 0 .1-.1.1-.2l-.8-1.6-.1-.2h.1l.1.2 1.2 1.8.1.4-.4.1c-.9-.1-1.8-.4-2.7-.8l-.2-.3.2-.1.3.1c.2 0 .3-.1.2-.2s-.2-.3-.5-.4a4 4 0 0 0-1.3-.5c-.3-.1-.5.1-.4.3l.4.9v.3l-1.1-.2c-.7-.3-.7-.5-.7-1.3v-.7c.1-.2.1-.3.3-.2.7.2 1.5.3 2.2.7l.6.4c.2.1.3 0 .2-.2 0-.2-.2-.4-.4-.6l-2.3-1c-.2-.1-.2-.2-.2-.4.3-.5.5-1.1.3-1.7l.1-.2.2.1.1.3c.1.5.4.9.8 1.3.7.7.7.7 1.7.5l.3-.2-.3-.3-.6-.2c-.7-.2-.9-.7-.6-1.4l.6-1.9.1-1c0-.2.1-.2.2-.2l1.5-.1c.4 0 .8-.5.9-.7l.9-.8a.8.8 0 0 0-.4-.2l-.6.1c.1-.4.3-.7.3-1.1l-.2-.7c-.1-.2-.3-.3-.5-.1-.4.3-.7.7-.8 1.1l-.2 1v.5l.3-.2.4-.3.3.1-.4.3-.7.5c-.3.1-.4 0-.3-.3l.2-.7c.1-.4 0-.8-.1-1.2-.2-.5-.2-.9-.5-1.4l-.4-.7c-.1-.2-.3-.1-.6.2-.4.5-.6 1-.8 1.9v.2l-.3.3-.1-.2.2-1a1 1 0 0 0-.5-.9l-.8.7c-.2.3-.2.7 0 1.1.4.6.3 1.2.2 2h-.1c-.1-.5-.1-1-.3-1.4l-.4-.8c-.1-.4-.2-.9-.1-1.1.2-.3.8-.5 1-.8s.1-.5.4-.8c.2-.2.6-.7.8-.5.9.4 1.8.5 2.7.4.4-.1.5 0 .6-.4.1-.3.1-.1.5-.2.6-.2.9-.7.9-1.3V2l-.2-.8c-.1-.2-.2-.1-.3 0l-.8 1.2-.3.6c-.1.2-.1.2-.3 0l-.5-.4c-.3-.2-.3-.8-.2-1.2l.3.4c.1.3.2.6.4.7.3.1.5-.4.5-.8l-.1-.3c-.3-.5-1-1-1.4-1-.5 0-.8.6-.6 1.2l.2.4c-1.2.6-1.5 1-1.9 1.5l-.1.3c.2.4.1.5-.3.8l-.7.3h-.1l.1-.1.8-1.8c.3-.7-.3-1.3-.9-1.5-.5-.4-.8-.3-1 0-.7.9-.7 1.9 0 2.9l.1.1c.1.2.1.3-.1.3L7.8 5c-.6 0-1.1.3-1.5.8-.1.1-.2.2-.4 0-.4-.2-.7-.1-1.1.1-.4.3-.9.4-1.4.6H3l-.2-.1.2-.2.8-.2.3-.1.1-.3-.3-.2h-1c-.9.1-1.5.5-2.1 1-.3.3-.3.5 0 .7.7.5 1.4 1 2.2.8l.8-.5.6-.6c.3-.4.8-.8 1.1-.3.6.7.7 1.3 1.6 1.2.3 0 .5-.2.6-.5l.1-.4c0-.3-.1-.4-.4-.3l-.4.2h-.3l.1-.3.5-.3 2.1-.5h.2l-.1.2c-.2.6-.5.7-1 .9-.1 0-.2.1-.3.4-.2.9-.1 1.9.5 2.6l.8.6c.5.3.6.7.8 1.2l.4.9c-.4.3-.7.6-.9 1-.1.1-.2.1-.2-.1l-.3-.7c-.2-.6-.7-1-1.3-1l-.7-.1c-.3 0-.4.1-.5.4-.2.8-.2 1.5.5 2.3l.6.4-.4.1-.9.4-.8.8c0 .2.3.4.6.5.8.3 1.7.3 2.5 0 .5-.2.5-.1.6.3l.2 1c.1.2-.1.4-.3.3a17 17 0 0 1-3.9-1.7l-1.4-.4-.5.2-1.4-.5-.2-.2.2-.1 1.6.2.3-.1-.2-.2c-.9-.7-2-.6-3.1-.4-.4.1-.4.2-.2.5.6.7 1.3 1.3 2.2 1.4.6.1 1.1 0 1.8-.1 1.1.7 2.2 1.3 3.4 1.7v.2l-1.4.2-1.2.2c-.4.1-.5.3-.3.7.3.5.9.8 1.5.9.4.1.9.1 1.3-.1.8-.1 1.1-.5 1.6-.8.3-.2.7 0 1 .1l1.3.4 2.1.2 2.3.1.8-.1-.5 1.1c-.1.2 0 .3.2.3.3 0 .7-.2.8-.5l.1-.8.2-.3c.1 0 .5.1.4.2l-.2.7-.2.4.5.1c.6 0 .8-.1.7-.8l-.1-.5c-.1-.5 0-.8.4-1s.8-.1 1.2-.1c1.3.1 2.7.9 3.5 1.6.5.4.1 1 .1 1.8l-.1 1.2c0 .4.2.6.3.7l1.4 1c.5.3.7.5 1.3.7h.4v-.6l-1.1-.4a.2.2 0 0 1-.2-.2l.3-.2.7-.2.2-.2-.2-.2-.9-.2-.2-.2.3-.2.8-.1.2-.1-.1-.2-1-.4-.1-.3.3-.1h.6l.2-.1-.2-.2-.7-.5c-.2-.1-.2-.2-.3-.4h.4l.6.2h.3l-.1-.2-.3-.2-.6-.5c-.1 0 0-.2 0-.2h.2l.7.2h.2l-.1-.2-.6-.5v-.3l.3.1.4.1h.3v-.2l-.2-.6v-.2h.2l.8.3h.3l-.2-.3-.2-.3v-.2l.2.1.9.4c.2.1.2 0 .3-.1l-.2-.5.1-.1.7.2.7.1.2-.1-.2-.5h.3l.8.3 1.2-.1c1.4-.2 2.6-.3 4-.8l1.7-.7h.2c.4 1 1.2 1.3 2.1 1.4l.8.1c.2 0 .3-.1.2-.3a5 5 0 0 0-1.3-2.2l-.5-.4a.5.5 0 0 1 0-.7l1.5-.9c.7-.4.9-1.1.8-1.7l-.2-.5-.3.2-.4.8-.1.2-.4.1-.1-.3.2-.5.8-1 .1-.2-.2-.1c-.4.1-.8.2-1.1.5l-.6.9c-.4.6-.7 1.4-.8 2.1l-.3.7c-.1.4-.1.5.2.8l1.7 1 .1.2-.2.1a2 2 0 0 1-1.4-.6l-.6-.4-1.7.4c-.3.1-.5.2-.7.5-.1.2-.3.3-.6.2l-1.1-.3c-.5-.1-1.1 0-1.6.1l-.3.1c-.2 0-.3 0-.2-.3l.2-.9-.1-.4-.4.2-.5.9c-.1.2-.2.2-.4.1a4 4 0 0 1-1.1-.6l-.7-1.1.2-.2.9.8.3.6.3-.1.1-.4c.1-.4 0-.9-.3-1.2-.4-.4-.7-.5-1.3-.9-.7-.5-.8-.5-1.1 0-.2.4-.3.8-.3 1.3.2 1.1.5 1.6 1.8 2.3l-.1.2-.3.1-1.7-.1-.3-.1c-.4-1.7-.2-3.5.6-5l.3-.4 1-.5c.2-.1.2 0 .3.2l.2 1.1.1.5c.2.1.4-.1.5-.3.4-.7.5-1.4.2-2.3l.1-.3c1.5-.3 2.4-.6 3.4-1 .5 0 1.2 0 2.2.2.2 0 .5.3.8.5l-1.5 1.1c-.1.1-.3.3-.2.7l.8-.2 1-.2h.3l-.1.3-.5.2c-.1.1-.3.2-.2.4l.4.2 1.3-.2c.2-.2 1-1.2.5-1.3l-1-.2c0-.2.2-.3.3-.3l.9.2c.4 0 1.4.1 1.8-.1.2-.1.3-.2.2-.3-.4-.7-.9-1.3-1.7-1.5h-4.1l-.2-.1.2-.1.9-.5c.4-.3.7-.7.8-1.2v-.3c-.3-1-.8-1.8-2-1.9l-.6-.1c-.2 0-.3.1-.3.3v.9c0 .2.1.2.3.3.5.1 1.1.2 1.6.5.3.1.4.3 0 .6l-.8.6-.1-.4-.1-.7-.1-.2c-.2 0-.4.2-.4.4l-.2.9c-.1.4-.3.6-.6.7-.2.1-.3 0-.3-.2l.1-.6c.3-.7.4-1.2.3-1.8l-.1-1.3c0-.2.1-.4.3-.4l1.5-.6c.2-.1.3 0 .5.2L38 4.5c.3.3.4.3.6 0l.8-.8c.2-.1.2-.3 0-.3L38.2 3l-.3-.1a.2.2 0 0 1-.2-.2l.2-.2 1.7-.6.3-.1c.2-.1.3-.2.2-.4L40 .7c0-.2-.2-.4-.4-.4a2 2 0 0 0-1.3.2l-.8.6a1 1 0 0 0-.2.5h.3l1-.4.4-.4.2.3-.9.5-2.1.9c-1 .4-1.5.4-1.9.5h-.1v-.1l.8-1.4.3-.1v.2l-.3.6v.2l.2.1c.6-.1 1.1-.8 1.2-1.4 0-.2-.1-.3-.3-.3L35 1c-.7.2-1 .6-1.2 1.2a3 3 0 0 0-.2.8c-.1.3-.3.4-.6.6-.5.3-.7.2-1.1.3l-1.1.1-.2.1v-.3l.7-1c.3-.5.2-.8-.3-.9-.8-.3-1.7 0-2.2.8-.3.4-.5 1-.7 1.5-.1.3 0 .5.3.5.5.1 1-.1 1.5-.2l-.1.8-.3.6c-.2.3-.4.4-.7.2l-1.5-.8c-.6-.3-1.1-.6-1.7-.6h-.2c-.2 0-.2-.1-.1-.2.2-.2.2-.3.1-.5l-.6-1.2-.3-.7.8.3.2.9.4.6c-.1 0 .1.1.2 0l.2-.3c0-.3-.4-.9.2-2.2.2-.5 1-1.5 1.5-1.5.3 0 .5.1.7.5l.2.8c.1.2.2.3.4.3.5-.1 1.2-.4 1.8-.4.4-.1.6.8.8 1.2.3.5.4.9.7.4l.9-1.4c.1-.3.3-.4.5-.5.7-.4 1.6-.5 2.3-.4.2 0 .3.1.3.4l-.1.5.1.2.2-.1.4-.3.3-.3c.5-.6.9-.9 1.9-.9l1.2.2c.3.1.3.2.3.5l-.3.9c-.1.4 0 .5.3.7s.6.3.8.6l.4-.1c.4-.8 1.1-1.6 1.7-1.9.3-.2.4-.2.5.1l.4 1.3.1.5.3-.4.7-.7a3 3 0 0 1 1.6-.8c.5-.1 1.3 0 1.8.2.2-.1 0 .2-.2.5l-.3.4c-.1.1-.2.2-.3 0l-.5-.7c-.3-.3-.8-.1-1.2.1-.8.4-1.4 1.1-1.8 1.8-.3.4-1.2 1.6-1.6 1.9h-.2v-.2c.4-.6 1-1.7 1.1-3.5l-.6.1-.6.8c-.6 1-.8 2.1-.9 2.9 0 .3 0 .5-.3.6l-.9.5h-.2c.2-.8.1-1.4-.4-2.2l-.4-.1-.4.3c-.7.6-1.1 1.6-1.1 2.7 0 .2.2.2.3.1l.4-.4.7-1.2.2-.2v.3l-.2.8c-.1.3-.4.8-.8 1-.1.1-.1.3.1.3.8 0 1.3-.1 2-.4.7-.4 1.2-.7 1.5-.6L44 7l-.2.2-.9.6c-.4.3-.5.4-.4 1.1l.2.8.2.2.2-.1.9-1.2.2-.1v.2c-.1.4-.3.8-.6 1.1l-.2.1c-.2.3-.2.4 0 .7.3.4.3.9.2 1.3l-.2 1.3-.8.4-.8.6-.4.6.2.2.4.2c.4.1 1.2 0 1.3-.5l.1-.5c.1 0 .3 0 .3.2.2.5.3.8.6 1.1l-.2.4c-.2.3-.3.5-.6.5h-.3c-.2 0-.4 0-.3.3v1.1c-.1.2-.1.5-.4.5-.6 0-1-.5-1.5-.5l-1.1-.2-.7-.4-2.4.4-2.6.5-1.9.4c-.2.1-.2.2-.2.4l-.4 1.5.2.3.2-.2.3-.6c.2-.3.9 0 1 .4.1.2-.2.3-.2.6 0 .2.3.4.3.7l-.1.5c.9.6 1.1 1 1.1 1.8 0 .2 0 .3.2.5l.4.4c.4.5.8 1.2 1.1 1.3.1 0 .5.1.8 0l.1.2c-.1.2-.3.5-.6.5-.6.2-1-.8-1.3-1.3l-.5-.7c-.3.3-.7 1.5-.7 2.1l.2.8.7 1.4c.2.4.6.5 1 .6.3.1.6.2 1 .1l.3-.1V29l.2-2.3.1-1.4c0-.3.2-.8.6-1.1.4-.3.6-.7.5-1.1l.1-.5c.1-.3-.1-.3-.4-.3-.3 0-.3-.2-.2-.4l.9-1.2.3-.7c-.1-.4 0-.9.3-.9h1.3l1.2.5.1.3.6.6c.3.3.6 1.1.1 2.3.3.2.2.4.2.7 0 .2.1.3.3.4.3.1.4.3.7.8.2.5.8 2 1.2 5.6l-.5 2.9c.2 1.7.5 3.8.7 6.7l.3 5.3c.5 0 .6.1.7-.3l.1-.4.2-.2.2.2.3.9.2.7.2.2.2-.1.1-.4V45l.1-.3.2.2.4 1 .2.3.2-.1.1-1.2-.2-.7.1-.2.2.1 1.4 1.8.2.2h.3l.1-.3c0-.1-.2-.2-.2-.5l.1-.2c.2 0 .3.1.3.2l.4.6.3.5.3.1.1-.3-.2-.5.1-.1.4.2.3.4c.2.3.4.5 1.1.6v.2l-.6.2h-2.3c-.6-.1-1.2.1-1.7.4-.4.2-.8.2-1.2.2l-2.5-.1c-1.5 0-2.1.2-3.6.3l-1.4-.1c-.7 0-2-.3-2-.8l.2-.7c0-.2 0-.2-.2-.3l-.5-.1-2.4.1-1.3.2c-1.1.2-1.7 0-2.2-.5a3 3 0 0 1-.8-.8c-.5-.7-1.3-1.4-2.2-2.1-.9-.8-2.1-2.1-2.8-3-.2-.2-.5-1.1-.6-1.4-.1-.2-.2-.8-.1-1.2l.4-.2 1.1-.2.4-.3v-.2l-.2-.1a2 2 0 0 1-1.1 0 .8.8 0 0 1-.5-.2l.3-.3c.6-.1 1.1-.3 1.5-.6V35l-1.2-.1-.4-.3.3-.3.7-.3.5-.4v-.2c-.4 0-.9 0-1.4-.2l-.2-.1.2-.3 1.3-.2.2-.2-.2-.2-1.2-.1a.2.2 0 0 1-.2-.2l.2-.2 1.1-.2.3-.2-.3-.2-.9-.2-.3-.1-.1-.1.3-.2.7-.2c.2-.1.4-.1.4-.3v-.1l-1.1-.1a.2.2 0 0 1-.2-.2l.2-.1.9-.3.1-.2-.2-.1-.9-.3-.1-.2.2-.2.5-.1-.2-.5-.2-.2-1-.5a9 9 0 0 1-1.6-1.1c-.5-.5-1-1.1-1.2-1.9v-1.4l.4-1.1.1-.3-.9-.9-.5-.3c-.6-.2-1.1-.2-1.4-.2l-.9-.1c-.2.1-.3.4-.4.6l.3 1.4c.4 0 .9.2 1.4.5.4.2.5.4.7.9.3 1.1.4 2.5.7 4.1.2 1.4-.5 2.7-2 2.7l-1-.1c-.3-.1-.6-.3-.7-.6l-.4-1.3-.3-.9c-1 .3-2.1.6-3.3 1.2L12 29.4c-2 .8-4.1 1.3-6.1 1.3-1 0-2.2-.2-3-.5-.7-.3-1-.6-1.1-1.5v-2.3c.1-.8.2-1.3.7-2.7.2-.6.5-.9 1-1.1l1.2-.4 1.4-.1 1 .2c.6.2.6.7.7 1.2V25c.7.1 2.2.1 2.9-.1.6-.1.8-.2 1.9-.7.3-.5 1.3-1.2 2.4-1.8zm22.3 12.4.2 1.1-.1 2-.1 3.5-.2 2.2c0 .3.1.4.2.4l1.2.2c.9 0 1.4-.4 1.3-.9l-.2-.9c-.2-1-.2-1.3-.2-2.3h.2l.7 2.6.1 2.2c1.4.2 3.1 0 3.7-.1.1-1.2.1-2.4-.4-2.8l-1.1-.9c-.7-.5-1.2-1.3-1.5-1.7l-1.3-2.2-1.2-2.1-.5-.7-1.3-.2c-.6-.1-1-.1-1.4-.5-.3-.3-.4-.5-.2-.9.1-.2 0-.4-.2-.5-.2-.2-.1-.5.1-.6.4-.4 1-.8 1.6-.9h.1l-.1-.5-1.1.1c-.8 0-1.5-.3-1.8-1.3l-.7-1.8c-.1-.3 0-.6.1-1l-.7-.9c-.4-.2-.9-.4-1.2-.8-.1-.2-.2-.2-.3-.1l-.3.3c-.2.1-.5.1-.8 0s-.4-.4-.4-.7c0-.4.2-.7 0-.8-.3-.3-.6-.7-.2-.9l.4-.1c.4-.2.5-.6.4-1-.1-.3-.2-.4-.5-.5-.4 0-.6-.2-.6-.5 0-.4.3-.5.6-.5l.4.2.2.3c.5-.1.9-.6.9-1.1 0-.2-.1-.2-.4-.2l-2.1.6c-.4.1-.5.5-.2.8l.2.3c.1.2.1.3-.1.3l-.2.1c-.2.2-.2.4-.1.6l.2.2c.2.2.2.3 0 .5s-.2.5-.2.8l.2 1.7.1 1.8c0 .4.2.8.6 1.3l1.4 1.5a4 4 0 0 1 1.2 2.5c0 .5.2.6.7.9.9.3 1.3.8 1.4 1.5.2 1.3-.4 2.5-1.6 2.4-.6-.1-.9-.4-.9-.7 0-.3.2-.7.4-.8h.2v.2l-.2.3.1.5c.1.2.3.2.6.1s.4-.3.6-.5c.5-1 .2-2.1-.8-2.3a2 2 0 0 0-1.1 0c-.6.4-1.2.6-1.7 1.1l-.1.3.1 2.5.4 3.8.2.8.2.3.3-.3.5-.8h.1l.2.2.1.4v.7l.3.3.2-.3.1-.4.2-.1.1.2v.8l.2.2.2-.2.3-.5.6-.6.3-.1v.3l-.5 1.1-.1.5h.3l.2-.2.1-.2.2-.2.2.2.2.5.2.2.2-.1.2-.5.3.2.2.3 1.1.1v-.5l.1-2.8.2-3 .2-2.8.1-.2zm14-19-1.4-.1c-.2 0-.8 0-.8.3l.2.3c.7.5 2.6.5 3.4.4l-.1-.6c-.2-.6-.9-1.1-1.5-1.3-.7-.2-1.5-.1-2.1-.1l-.1-.3c.2-1 .2-1.9.1-2.7l-.4-.9c-.1-.2-.3-.2-.4 0l-.4.5c-.6.8-.6 1.3-.5 2.5l.4.1c.2 0 .3-.1.3-.4l.1-1 .1-.2.3.2v.3l-.3 1.5c0 .1.5.3.4.4l-1.2.4c-.3-.4-.5-.7-1.2-.9-.3-.1-.6-.2-.3-.4l.4-.2c.7-.3.4-.6.4-1.3 0-.2-.1-.3-.3-.3-.3 0-.5 0-.8.2l-.4.3-.8.8h-.3l.1-.3.5-1.5c.1-.2.2-.4.4-.3 1 .2 2 0 2.7-.7.3-.3.3-.5-.1-.7-.6-.5-1.3-.7-2.2-.5a5 5 0 0 0-.7.6l-.1.3.2.1.8-.1h.2l.2.1-.1.1-.5.1-1.1.3c-.2.1-.3 0-.3-.2-.1-.3 0-.6.3-.8.4-.4.8-.8.9-1.4.1-.3-.2-.8-.3-1.1v-.2c.4.1.9.3 1.2.6.2 1 .9 1.7 1.8 2l1 .3c.3.1.6 0 .5-.3v-.5l.7-.2 1.6.5.2.2-.4.2-1.2-.3c-.2 0-.4.1-.5.3.2.3.9.7 1.2.8.4.2 1.9.3 1.9-.1a5 5 0 0 0-.2-1.2c-.1-.3-.4-.5-.7-.6-.6-.2-1.1-.2-1.9-.2H50l-.8.2-.1-.4c-.2-.6-.4-.8-.9-.9V7c.4-.2.9-.6 1.1-1l-.6-.3c-.6-.2-.7-.5-1.1-.7-.4-.2-.7-.2-1-.2l-.8.2c-.1.1 0 .2.2.3l1.2.6.1.1-.1.1a2 2 0 0 1-1.1-.3l-.4-.3c-.3-.1-.3 0-.5.3-.1.2 0 .4.2.5.7.4 1.2.6 2 .7l.1.4-1-.1-.6-.2-1.4-.7-.9-.3c-.2-.1-.2-.2 0-.3l2.5-1.6h.5l1 .3c.1 0 .4.1.4-.2.1-.6.3-1.1.5-1.3.4-.6.9-.9 1.6-1.3.2-.9 1.1-1.8 1.4-1.8.8 0 1.7 1.5 1.8 2.1.1.4-.6.8-.1.8.4 0 .8.1.8.4 0 .6-.2 1.2-.5 1.6s-.6.9-1 1.1v.2c.7.5 1.5.9 1.5 1.7 0 .4-.1.7-.4 1-.2.2-.3.3-.3.6v1.4c0 .4-1.2.4-1.3.6.3.9-.1 2.4-.3 2.8l.2.4c1.2.8 1.3 1.5 1.5 2.2-.3.3-.8.6-1 .6-.7 0-2.4-.6-2.7-.6-.1.2-.1.4.1.9.2.4.4.7.4 1.1 0 .2 0 .5-.6.6a4 4 0 0 1-2.5-.7l-.4-.2c-.2-.1-.6 0-.7.2l-.2.6c-.1.3-.2.3-.7.2-1.2-.2-1.7-1.5-1.7-2.7l.1-.2.2.1.2.6.3.9c.2.4.5.7 1 .7l.3-.4c.2-.5.5-.9.4-1.5l-.2-.7-.3-.3.2-.2c.5.2.9.2 1.2 0l.4-.4A26 26 0 0 1 49 15a5 5 0 0 1 2.2.4l.1.4zM19.4 36.2c.4 0 1 .2 1 .7l-.1.2h-.1c-.2-.4-.4-.6-.9-.5-.4.1-.8.3-1 .6-.2.2.2.3.4.4l.5.3-.2.5-.6-.3.2-.3c.1-.1.4 0 .6.1 0 .4-.6 2-.3 2.1.8.1 1.9-1 2-2.5 0-.6.3-.8.9-1 .7-.3 1.1-.6.9-1.4-.1-.4.2-.3.4-.6l.2-.3.1.5c-.2.6 0 1.1.3 1.7l.6 1.5c.1.2.3 0 .4.2.5 1 1.1 2.6 1.9 3.2l1.9 2c.3.3.6 1.1 1 1.3.3.1.3.3.3.6-.1.3.1.4.2.4l.6-.1c.2 0 .3.1.3.3l-.3.2h-.7l-.2.1.1.2 1.1.3.2.1-.2.2h-.4l-1-.4-.3-.2-.3-.1v.3l.1.2.1.2s-.2.2-.3.1l-.8-.6c-.3-.2-.6-.2-1 0l-.9.6c-.4.2-.8.7-1.2.7l-1.2-.5-1.2-.3c-.5-.1-.9.1-1.3.2l-1.8.4h-1.1l-1.7-.1-1.1.2c-.3.3-.5.3-.6.3l-.7-.2c-.2-.2-.5-.2-.8-.2-.3.1-.8.2-1 0-.3-.3-.9-.8-1.2-.7-1.1.2-1.6.8-2.7.5-.8-.2-1.3-.4-2-.1h-.9c-.3 0-.4 0-.3-.3v-.2c0-.3-.2-.5-.5-.4s-.5.5-.8.6c-.5.2-1 .2-1.6 0-.4-.2-.8-.1-1.2.1-.2.1-.6.7-.9.7l-.3-.3v-.3l.6-.6c.7-.3 1.4-.4 2.1-.3h1c.3-.1.6-.1.8-.3.4-.2.8-.4 1.2-.2l.7-.5v-1.3l.4-1.2c.1-.2.2-.2.3-.2.3.5.7 1 .5 1.4-.1.3.6.5.5.9-.1.3-.1.4.2.4h.2c.2 0 .2-.1.2-.4 0-1.1-.2-2.1-.7-3.1l-.3-.7c-.2-.5-.2-.9 0-1.4l.3-.8a2 2 0 0 1 1-1l.2.1c.7 1 .9 2.1.6 3.3l-.2 1.1v.3l.2-.2.9-1.5c.3-.5.7-.7 1.2-.8.6-.1.8 0 .6.5l-.3 1c-.2.5-.5 1-1 1.2a3 3 0 0 0-.7.5l-.2.2v.3c.1.1.3.1.4 0l.8-.5.8-.5c.2-.1.3 0 .3.2 0 .3-.1.7-.3.8l-1 .3-.5.4-.3.8v.3l.2-.1.9-.8c.3-.2.3-.2.5.2l.2.3.3-.2.2-.4c.1-.3.5-1.4.8-1.7l.2.1v1.1c0 .4.2.5.6.3l.9-.5.2-.1.3.1v.1l-.4.4-.1.4h.3l.7-.3h1l1 .3c.3.1.6-.1.8-.2l1.5-.6c.7-.2 1.3-.6 1.8-1.1l.4-.3.2-.7c.1-.4-.1-1.2 0-1.6l.2-.4h.2l.1.5-.1 2.8c0 .2-.3.4-.4.4-1.2.4-2.3.9-3.5 1.2l-1.7.1h-1.3l-1.2.4-2.8.3-2.6.6-.5.3-.1.2.3.1h.6l1.6-.2.4.2c.3.2.5.2.8.2.3-.1.6 0 .9.2.5.4.6.4 1.2.1.4-.2.9-.2 1.4-.2l1.7.2 1.3.2c.8.1 1.5-.1 2-.8l.8-1c.2-.2.4-.4.6-.4.6 0 1.2-.2 1.8-.1.3 0 .5.3.5.5s-.1.3-.3.3l-1.3-.1c-.5 0-.8.1-1.1.4-.2.2-.1.3.1.3l.3.1c.2 0 .3.1.4.4 0 .1.3.3.8.3l1.5-.1.5-.5c.4-.5.6-.6 1.2-.5.4.1.8-.4 1.1-.4.5 0 .3-.6.1-.9l-.6-.9c-.6-.5-1.2-1.4-1.7-2.1-.4-.5-.9-.7-1.3-1.3l-.8-1.5-.6-1.1c-.2-.3-.3-.6-.6-.8-.3-.3-.9-.1-1.3.1l-.4.3c.9.8 1 1.8.6 2.6-.1.2-.2.2-.4.1l-.7-.3c-.2-.1-.3 0-.5.1-.7.4-1.5 1-1.7.8-.3-.3-.7-1.1-.7-1.5l.2-.8-.9-.6v-.3c.9-1 1.7-1.6 2.3-1.6zM2 28.1c.1.6.3 1 .8 1.2a8 8 0 0 0 2.6.5l3.3-.3c1.7-.3 3.8-1.1 5.4-1.9 1-.5 2.1-1 3.3-1.2 1.2-.3 2.3-.4 3.6-.1.5.1.6.1.6-.3l-.2-.8c-.1-.9-.1-1.7-.4-2.5l-.5-.5-.9-.3h-1.8c-1 .2-1.8.4-2.7.8l-2.6 1.4a7 7 0 0 1-3.8 1.1l-2.4-.1a7.4 7.4 0 0 1-3.5-1c-.2-.1-.4-.1-.5.2l-.2.7c0 1-.3 2.1-.1 3.1zm41.4 9.8-1.3.1h-.4l.2-.2 1.3-.7c.2-.1.2-.3.1-.4a6 6 0 0 1-1.9.5l-.1-.1 1.6-1c.2-.2.1-.3 0-.3l-1.7.5h-.3v-.1l.2-.2 1.6-1v-.1h-.2l-1.9.3h-.2v-.1l1.1-.7.1-.3-.4.1-1.1.1v-.1l.1-.2.7-.4.5-.4V33l-1.2.3H40l.1-.2 1.3-.7.3-.4v-.1l-.2.1-1.2.4-.2-.1.2-.2 1.7-.8 1-.7.5-.6-.4-.1-1.4.9-1.5.7-.2-.1.1-.2.6-.7 1.6-.8.8-.6v-.3l-1.8.9h-.1l.2-.3 1.5-1.2V28l-.3.1-1 .4-.1-.1.1-.3 1.2-1.2v-.3l-1.2.5h-.1v-.2l1.1-1.1v-.2l-1 .3h-.1v-.2l.8-.9c.1-.1.1-.2 0-.2l-.7.1a.2.2 0 0 1-.2-.2l.2-.2.4-.3.1-.2-.2-.1-.8.1c-.6.1-.6.2-.7.4l-.7 2c-.1.2-.2.4-.4.4-.3.1-.2.3-.3.5l-.4 1c-.2.4-.3.7-.6.9h-.1v-.7l-.2-.8v-.4l.1-.8.1-1.6-.1-.1-.1.2-.3 1.2v2.3c-.1.7-.2 1.3-.1 2v.4l.6-.2c.5-.2.8-.2 1.3-.7.3-.3.3-.9.4-1.3.2-.6.4-.8.6-.9h.2l-.3.8c-.1.3-.2.8.1.8h.2v.2c-.3.3-.5.6-1.9 1-.2 0-.5.5-.5.6v.8c.1 1.4.8 2.7 1.6 3.9.6 1.1 1.1 1.9 1.8 2.6.3.3.7.5 1.2.3l.7-.4.1-.3zM24.8 18.2c0 .5-.1.7-.8.5l-.7-.2c-.3-.1-.6-.2-.8-.5-.3-.3-.6-.3-.9 0l-.2.2-.2.1-.1-.3c.1-.3.3-.6.6-.7l.7-.2c.6-.2 1-.6 1-1.4l.1-1.3c0-.3-.1-.4-.4-.3l-1.6.6-.4.3-.4.8-.1.1-.1-.1-.4-.6-.4-.6c-.2-.3-.2-.4 0-.6l.9-.8c.4-.4.6-.9.6-1.5v-.8c0-.4.1-.5.4-.4l.7.2 1.2.6c.2.1.4.3.4.6s-.2.5-.5.4a9 9 0 0 0-1.3-.5c-.2-.1-.4.1-.5.3-.1.5.3.5.3.7-.1.4-.7.5-.8.8-.1.3-.1.5.2.4l.8-.3 1.2-.6c.5-.2.7-.1.8.4a316.2 316.2 0 0 0 .7 4.7zm11.1-3.9.1-.7.2-.4.4.2c.3.6.8 1.3 1.6 1.7l.7.2.2-1.2c0-.4-.1-.8-.5-1.2l-1.1-.8c-.3-.1-.5 0-.6.1v.3l.8.9v.2l-.2-.1-.6-.5-.7-.7c-.2-.2-.3-.2-.5 0-.4.6-.6 1.2-.7 2-.1.9.3 1.8 1.1 2.1.3.2.6.1.8-.2l.4-1c.1-.2.1-.3-.1-.4l-.6-.6-.3-.2-.1.2.1.9-.1.2c-.2-.1-.3-.2-.3-.4v-.6zM4.1 3l.5.6.5 1.1c.1.3.2.3.4.2.2 0 .3-.3.3-.6l-.1-.6c-.2-.7-.1-1.3.6-1.7.2-.2.4-.4.3-.7l-.3-1C6.2.1 6 .1 5.8.2c-.7.3-1.5 1.4-.9 2.3l-.1.3-.1-.2-1.3-1.2-.6-.3c-.1.1-.2.5-.1 1.2s.3 1.4.8 2.3l.4.5.6.2v-.6l-.4-1.2V3zm47 2.7 1.1-.3c.8-.3 1.3-.8 1.5-1.7.1-.2-.1-.4-.3-.4l-.5-.1c-.5-.2-.6.1-.8.6-.2.4-.3.8-.7 1.1-.1.1-.5-.2-.7-.3.8-.5 1.3-1.2 1.7-2.1.1-.2 0-.3-.2-.4l-.8-.1c-1 .1-2.3 1-2.9 2.2l.1.3h.5l.2-.2c.3-.6.9-.9 1.5-1.2h.2v.2l-.2.2-.8.4-.5.4v.3l.3.1.3-.1.4.8.6.3zm-17.3-.1c0 .3-.1.4-.4.3-.5-.2-.8-.8-1.4-1-.2-.1-.3.1-.4.3l-.2 1.3c0 .8.4 1.3.9 1.7.1.1.1.2 0 .2l-1.8 1h-.6c-.2-.2-.2-.3-.2-.5l.6-2.7c.4-1.4 1-1.9 2-2l.9-.1c.3 0 .4.1.5.3l.1 1.2zm1.4 6.2c0-.7-.5-.9-.8-1.5-.2-.6-.4-.6-.9-.2-.5.5-.8.9-1 1.6-.2.6-.1 1.3 0 2 0 .2.2.4.4.3.2-.1.3-.2.3-.4 0-.6.1-1.1.3-1.5.1-.2.2-.2.3-.2l.1.3-.2 1.3c-.1.3-.1.4.1.7.2.3.3.3.4.1.4-.7 1-1.9 1-2.5zm-29 1.9c0-.6-.2-1.2-.4-1.7s-.6-.8-.8-.8c-.2 0-.7.6-.8 1-.2.4-.3.9-.2 1.1 0 .7.2 1.3.7 2 .1.1.3.4.5.1l.6-.7c.2-.2.4-.6.4-1zm25 18c-.1-1.1-1-1.9-1.6-2.4l-.4-.3H29v.3l.2 2.2.2 1.6c0 .3.2.3.4.2l1.1-.5c.2-.1.4-.4.3-1.1zm11-10.9c-.2-.5-.5-.7-1-.7l-.5-.1-.8-.1c-.3 0-.5.3-.6.6l.1.2.5.1.3.4c0 .1-.2.3-.4.3-.3.1-.3.3-.2.6 0 .3.1.5.4.8l.4-.3c.2-.2.2-.3.2-.5 0-.6.3-1 .7-1.4l.1.1-.3.9c-.1.7-.3 1.3-1 1.8l.3.1.6-.2c.3-.3.5-.6.6-1l.1-.3h.1V23.3l.3-.3c.2-.8.3-1.7.1-2.2zM51 6.4h-.8l-.1.3.3.2 1.1.1.2.1-.2.1c-.5.3-.9.3-1.5 0l-.2-.2c-.2-.1-.2.1-.2.2.1.3.4.6.8.8.4.2.8.4 1.2.4l1.5-.1c.3 0 .5-.2.6-.3s0-.4-.2-.6l-.4-.4c-.6-.6-.9-1-1.8-.9l-.3.3zm.5 6.2-.1-.9c-.2-.7-.7-1.1-1.4-1.1-.3 0-.5.1-.4.4l.5.7.3.9-.1.4-.4-.5-.2-.6-.2-.2-.2.2c0 .7.1 1.7.9 2.3l.5.4c.3.1.3 0 .4-.2a4 4 0 0 0 .4-1.8zM5.6 9c-.1.5-.2.8-.1 1.1 0 .4.2.7.5.8 1 .5 2 .5 3.1.5l.1-.1-.1-.2-.2-.1-1.5-.5-.3-.2c-.1-.1-.1-.3.1-.3l.5.1.8.5c.1.1.2.2.3 0 .1-.1.2-.3 0-.4l-.6-.6c-.6-.5-1.5-.7-2.6-.6zm21.5 5.3-.3 2.4-.2.3-.3-.3a17 17 0 0 1-1-3.2l-.1-.6c0-.2.1-.3.3-.3l1.5.5.1.3v.9zM3.9 18.9s0-.1 0 0v-.5l.2-.9v-.4l-.6.1c-.2.1-.3.3-.4.7v1l.2 1.5c.1.3.2.3.4.1l.5-.6 1-1.2c.3-.4.3-.7.2-1.1-.1-.3-.3-.4-.5-.4s-.3.2-.4.4l-.3.7-.3.6zm43-1.9.9.1c.5.2.7.4.8.6l.1.3c-.3.1-.6 0-.8-.2l-.6-.3-.9-.1c0 .3.3.7.5.8.6.5 1 .6 1.4.6l.9-.1.2-.4c0-.5 0-1.1-.5-1.6a2 2 0 0 0-1.9-.3l-.3.2.2.4zM27.6 2.2l.1.2c-.1.5-.4.8-.7 1.2-.2.2-.2.4-.1.6.2.2.5 0 .7-.2.4-.4.6-.9.8-1.4.3-.6.2-1.4-.1-1.9-.2-.2-.4-.2-.6-.1-.6.5-1.1 1.4-1.1 2.2l.1.4.5-.4.4-.6zm11.3 22.5h.2l.1 1 .1.2.2-.1.1-.7c.3-1 .1-1.7-.3-2.6-.1-.2-.2-.2-.3-.1s-.2.1-.1.3c.1.1.1.2 0 .4l-.4.8-.1.6-.2 3.4v.1l.1.2.1-.1.2-.6.3-1.1v-1.7zM7.4 3.5v-.2H8c.3.1.4 0 .5-.2.2-.4.1-.8-.4-.9h-.7l-1.1.3c-.4.1-.5.5-.2.8l1.2 1.2c.4.3.8.4 1.2.3.2 0 .3-.2.3-.3l-.1-.3c0-.2-.2-.3-.3-.4l-1-.3zm-.6 25c0 .2-.1.3-.4.3l-.8-.1-.4-.3c-.1-.6 0-1.3.1-1.8 0-.1.3-.3.5-.3l1 .2.3.5.1.6-.4.9zm31.1 16.8.7.2c.3.1.6.2.9.1.2 0 .4-.3.3-.5 0-.2-.1-.4-.4-.4l-1.7-.4c-.3-.1-.6-.1-.8.1a3 3 0 0 1-1.4.6l-.3.1-.1.3.2.2h1.2c.5.1.9-.2 1.4-.3zm3.1 1.9c.5 0 .8-.1 1.1-.3l.7-.5.6-.1c.2 0 .4-.2.4-.4s-.2-.3-.3-.3l-1.4-.2-.5.1-.9.7c-.1.1-.6.3-.7.5-.1.2-.1.3.2.4l.8.1zM25 10.8c0-.2.4-.6.7-.6l.1.1.1.5.2.4c.5 0 1.1-.3 1.3-.7l.7-1.4c.1-.1.2-.3.3-.2.1.1.2.2.1.4l-1 2.8c-.1.3-.1.3-.5.2l-1.5-.5c-.3-.3-.5-.6-.5-1zm11.8 23 .2.1.4-.2c.2-.1.3-.4.3-.5l-.1-2-.1-.2c-.3 0-.6-.1-.8.1l-1.2.9s-.1.2 0 .2l.2.1.6-.3.4-.2v.2l-1 1.1-.1.2.2.2.5-.2.7-.6c.1.1.2.2 0 .4l-.2.2-.5.5c-.1.1-.1.1 0 .2l.1.1.5-.2.5-.5.1.1c-.3-.2-.5 0-.7.3zM13 10.3c-.1.8-.2 1.6-.6 2.3l-.3.4-.2-.5-.6-1.6-.1-.4.6-1c.1-.2.2-.2.3-.1l.9.9zm1.3 16.1c-.1.2-.2.4-.5.6a2 2 0 0 1-.9.2c-.2 0-.3 0-.3-.2l-.3-1.5.2-.4c.3-.3.8-.4 1.2-.4l.4.2.2 1.5zm-4.1-6.1c-.3 0-.9.4-1 .7v.1c0 .5.1.9.4 1.3.2.2.3.3.5.1l1.1-.9.7-.9c.1-.2-.1-.3-.3-.4l-.8-.1c-.2.1-.2.3-.3.4l-.2.6-.2.3-.1-.5.2-.7zM14.8 46l-.5-.1.1-.1h.4c.5.2 1-.2 1.5-.3h.4l1-.1c.2-.1.3 0 .5.1.6.3 1.1.4 1.7.1l.9-.5c.1-.1.3-.1.4 0s.2.2.1.3l-.3.3c-.8.3-1.7.5-2.6.5l-2.7-.1h-.5l-.4-.1zM3.2 27.3c0 .2 0 .6.2.8l.1.1v.2l-.9-.1.3-.5L3 26l-.2-.3.1-.2c.7.2.8.1.9.4l.4 1.1.1-.1v-1c0-.2.1-.2.3-.2h.6v.1l-.1.1c-.3.1-.3.1-.5 1l-.2 1-.1.3-.3-.1a12 12 0 0 0-.8-1.6h-.1l-.1.4.2.4zm20.5 4.6v-.6l-.2-.7v-.2l.2-1.5V27l.3.3.1.6c.1.5 0 1 0 1.6-.1 1-.2 1.9-.1 2.9l.1.5c.1.3.1.6-.2 1l-.2-.1-.5-1.4.1-.2c.3 0 .4-.2.4-.3zm9.7-7.4c-.4 0-.8-.4-.8-1.1l-.7.7c0 .2.6.5.9.7l.7.8.4-1c0-.7-.1-1.2-.3-1.5l-1.3-.9c-.2.2.1.8.6 1.1-.1.2 0 .8.5 1.2zm-27.9-1 .9-.1c.2-.1.5-.1.5-.4 0-.2-.3-.4-.5-.4-.7-.2-2-.2-2.9.3l-.6.4c-.2.2-.2.4 0 .5l.8.4.2-.8.5-.4c.4-.2.8-.2 1.3-.2l.1.1-.1.1-.4.1-.2.1c0 .2.2.3.4.3zm2 5.4.1-.3v-.5l-.1-1.4.2-.1.2.1.8.8.1-.1v-.3l-.1-.6-.1-.4.9-.2-.2.5-.1.9.2 1.3-.1.1-.2-.1L8 27.4l-.1.2.4.9c.1.2.2.2-.2.3l-.6.1zm12.4.4c.4 0 .8 0 1.3-.3.4-.3.6-1.2.5-1.6l-.2-.3c-.1-.1-.3-.1-.4.2l-.1.6-.1.4h-1c-.3 0-1 .2-1 .6.1.3.6.4 1 .4zm3.9-4.8.2.5 1.3 1.1.9.5c.5.1 1 .4 1.3.9l.3.4c.2.3.5.5.9.5h.2l-.2-.4c-.7-.7-1.5-1.2-2.3-1.8l-1.4-1-.6-.4-.6-.3zM9.4 40.3 9 38.6l-.1-.1-.2.2a5 5 0 0 0-.4 1.3v.4l.7 1.8.2.2.2-.2v-1.9zm2.4-14.6.1.4v.2h-.1c-.3-.1-.6-.3-.9-.1-.1.1-.1.2.1.3l.8.3c.4.1.5.3.4.8-.1.4-.4.6-.7.7H11l-.1.3-.2.1-.1-.4-.1-.7.1-.1.4.4.7.1.2-.3-.2-.2-.8-.3c-.3-.1-.3-.4-.3-.6s.1-.5.5-.7l.5-.1.1-.4h.2l-.1.3zM6 8.1c-.6 0-.9-.2-1.5-.1-.4 0-.8.2-1.2.4l-.2.1.2.2c.3.1.4.2.6.1l3.6-.3.2-.3-.4-.2-1.1-.2-.2.3zm13.2 17.3-.3.2-.2.2-.2-.1.2-.6c.1-.2.2-.3.4-.1l.2.2.6.2c.2-.1.1-.4-.1-.5l-.9-.5c-.2-.1-.3-.3-.3-.6 0-.2.2-.5.5-.5h.4c.2 0 .3 0 .4-.2l.2-.1v.5l-.1.4h-.2c-.2-.3-.4-.4-.6-.4s-.3.2-.1.3l.3.3.6.3c.4.2.4.6.3.8-.1.3-.3.5-.6.5l-.5-.3zm-.8-.9-.1.4c-.1.4-.5.5-.9.5s-.6-.1-.7-.5l-.2-1.2-.4-.2-.1-.2.6-.2c.4-.1.4 0 .5.3l.2 1.3c0 .1.1.3.3.3.2 0 .3-.1.3-.3v-1.1l-.3-.4c-.2-.2-.2-.2.1-.3.5-.2.6-.3.6.3-.1.6.1 1 .1 1.3zm.2 2.4.3 1.3 1.3-.3c.3-.1.5-.5.5-.8 0-.2-.2-.4-.4-.4h-.2c-.6-.1-1.1 0-1.5.2zM6.9 23.6l-.6.1-.8.1-.7-.2c-.2 0-.4.2-.5.5 0 .3.1.5.4.5l1.8.2c.2 0 .2 0 .3-.2v-.5l.1-.5zm14.9-13.3L21 10l-.2-.4v-1c0-.2.1-.2.3-.2l.7.2c.3.1.8 1 .7 1.3-.1.3-.4.3-.7.4zm-5.4 15.2-.3.2c-.3.2-.9.3-1.2.6-.2.1-.1-.3-.1-.5l-.2-1-.3-.6c-.1-.1.2-.2.4-.2l.6-.2h.2v.1c-.3.2-.3.3-.2.6l.1.8.2.4.4-.2v-.6l.2-.2.1.2.1.6zm1.2-6.4-.2-.2-.3-1.2c0-.2.1-.3.3-.2l1.7.4c.2 0 .2.2.1.3l-1.2.9h-.4zm23.9-15c0-.4-.4-1.3-.6-1.5a.5.5 0 0 0-.8-.1l-.2.3c-.3.3-.2.5.2.7l.8.4.6.6v-.4zM11.9 40.3c-.3.2-.6.4-.8.8l-.6 1-.2.8.1.1.8-.6c.5-.5.6-.9.8-1.8v-.1l-.1-.2zM52.9 2 52 .5c-.2-.3-.4-.3-.7-.1l-.2.3c-.3.3-.4.8 0 .8.4.1.9 0 1.2.2l.5.4.1-.1zM5.7 27l-.1 1.2c0 .3.1.3.4.3.2 0 .3-.2.3-.4l.1-.9c0-.3.1-.5-.1-.5-.3-.2-.6 0-.6.3zm3.7-12.5-.9-.3c-.5-.3-.9-.8-.9-1.3 0-.2.2-.3.3-.2l.1.1.8.8c.3.3.5.5.6.9zm3.4 11 .2 1.1c0 .2.1.3.3.3.3 0 .4-.2.4-.4l-.2-.9c-.1-.3-.2-.4-.4-.4-.2-.1-.3 0-.3.3zM26.7 7.9l-.6 1-.7.6h-.2v-.2l.8-1.1.3-.4.3-.1.1.2zm18.7 9.7-.1.6h-.1l-.2-.5-.7-1.3-.1-.2.2-.1.3.1.7 1.4zm2-15.4.2.1c.1.1.2.2 0 .3l-1.7.8c-.1 0-.2.1-.2-.1.2-.3 1.3-1.1 1.7-1.1zM31.5 22.4c-.3 0-.6.2-.6.5s.4.6.7.6c.3 0 .5-.2.5-.5-.1-.3-.3-.6-.6-.6zM6.9 45.9l-.3.2c-.4 0-.5.1-.5.2 0 .2.1.3.3.3a2 2 0 0 1 1.3-.1h.1l.2-.3-.2-.2-.9-.1zm32.8-26.8-.2.3.1.2h.7l1.1.3.2-.1-.1-.1c-.3-.2-.8-.4-1.2-.4l-.6-.2zM19.2 9.7l-.8-.3s-.1-.2 0-.2l.5-.7c.1-.1.2-.1.2 0l.4.9c.1.2 0 .3-.3.3zm-10 9.4c.2 0 .3.1.2.2l-.2.2-.8.1-.9-.1-.3-.1.2-.2 1.8-.1zm5.3-15c-.1 0-.1.1-.2 0l-1.6-.9-.1-.2c.1 0 .1-.1.2 0l1.4.5c.2.1.3.3.3.6zM22.1 15c.1.1.1.2 0 .4l-.5 1.3-.2.3-.2.1c0-.1-.1-.2 0-.2l.3-.9.2-.7c0-.2.2-.3.4-.3zm18.2-5.5c-.7-.1-1.3-.4-1.9-.7l-.1-.2h.2l1.8.5.2.2-.2.2zm-7.6 11.6-.3-.3c-.1-.1-.3 0-.4.1l-.3.3c-.1.2-.1.4.2.5.2.1.4.1.5-.1.2-.1.3-.2.3-.5zm-12.2-9-.2.4-.8.9h-.2v-.2l.4-.6.5-.6s.1-.1.2 0l.1.1zM9.9 9.6l-.2-.2-.8-1.2-.1-.4.2-.2.2.2.4.9.4.7-.1.2zm-.4 6.1-.4-.2-.9.2h-.3l-.3-.1.5-.3h1.5l-.1.4zm37.7-7.9.2.1 1.1.8.1.1V9h-.2c-.5-.2-1-.4-1.3-.9l-.1-.2.2-.1zM20.1 9.2l-.1.2-.1-.2-.1-.6c-.1-.5 0-.7.2-1 .1-.1.2-.1.2.1l-.1 1.5zm-7-1.7.1.2.3 1.5v.4l-.1.1-.1-.1-.2-.8-.2-.8c0-.2 0-.4.2-.5zm31.6 6.8.6.4.6.6v.3l-.2-.1-1.1-.7-.1-.4.2-.1zM23.6 4.6l.7.1.2.2-.2.2L23 5l-.2-.2.2-.1.6-.1zm9.1 1.9c.3.4.5.9.6 1.4V8l-.1-.1c-.3-.3-.6-.7-.7-1.2l.1-.3.1.1zm-5.8 31.8.8-.6c.1-.1.1-.1 0-.2l-.3-.1-.8.3c-.2.1-.2.1-.1.2l.4.4zM16 5.3l.6-.3.8-.3.3.1-.2.1-1.1.7-.4-.1v-.2zM4.9 14.5l-.2-.9V13l.2-.3.2.2c.1.5-.1 1.1-.2 1.6zM29.2 3.2c.3-.3.9-.5 1.2-.7l-1.3 1.4c0-.2-.1-.6.1-.7zm-6 19.5.3.6.2-.3.1-1.2c0-.2-.2-.2-.2 0-.3.2-.4.5-.4.9zm20.4 16.1-1.7.6c.4.4 1.6 0 1.7-.6zM18.3 7.5c0 .5-.1 1-.3 1.4l-.2.2-.1-.2.3-1.5.1-.1.2.2zm24.1 32.9 1-.1.2-.2.2-.5h-.1l-.4.4-.8.2-.1.2c-.1 0-.1 0 0 0zM38.9 22l.3-.8-.2-.3-.2.1-.5.8.6.2zm-28.8-7.3.4-.9h.2v.9l-.2.4-.2.1-.2-.5zm21 6.8c-.2 0-.4.2-.5.4 0 .2.2.4.4.4s.4-.2.4-.4c.1-.3 0-.4-.3-.4zm-.2 2.3c0-.2-.2-.4-.4-.4s-.4.1-.4.3c0 .2.2.4.5.4.2 0 .3-.1.3-.3zm-.9-2.4c0 .2-.1.3-.3.3-.3 0-.5-.2-.5-.4s.2-.4.4-.4c.2.1.4.3.4.5zm.1 1c-.2 0-.4.1-.4.3s.2.4.4.4.3-.2.3-.4c.1-.2-.1-.3-.3-.3zM27.7 39c-.3 0-.5.1-.5.3 0 .2.2.4.4.4s.3-.2.3-.4c-.1-.1 0-.3-.2-.3zM9.9 3.8c-.1-.6 0-1.1.1-1.6.2.5.2 1.2-.1 1.6zm21 16.3c-.1.1-.3.2-.2.3l.2.3.2-.3-.2-.3z" />
  </svg>
